<?xml version="1.0" encoding="utf-8"?>
<!-- Generator: Adobe Illustrator 18.1.1, SVG Export Plug-In . SVG Version: 6.00 Build 0)  -->
<svg version="1.1" id="Layer_1" xmlns="http://www.w3.org/2000/svg" xmlns:xlink="http://www.w3.org/1999/xlink" x="0px" y="0px"
	 viewBox="0 0 648 147.6" enable-background="new 0 0 648 147.6" xml:space="preserve">
<line display="none" fill="none" stroke="#000000" stroke-width="2" stroke-miterlimit="10" x1="501.4" y1="-44.5" x2="5.4" y2="451.5"/>
<line display="none" fill="none" stroke="#000000" stroke-width="2" stroke-miterlimit="10" x1="501.4" y1="-44.5" x2="501.4" y2="451.5"/>
<g>
	<path fill="#06062C" d="M128.8,6.5l28-0.1v37.1l2-0.9l2-0.9c6.3-2.3,12.8-3.4,19.4-3.4c6.7,0,13.2,1.1,19.5,3.4
		c6.2,2.3,11.7,5.7,16.6,10.1c4.9,4.4,8.6,9.5,11.3,15.4c2.8,5.9,4.1,12.3,4.1,19.1c0,7-1.3,13.4-4,19.2c-2.7,5.8-6.5,11-11.4,15.5
		c-5,4.5-10.5,7.9-16.6,10.1c-6.2,2.4-12.7,3.6-19.5,3.6c-9,0-17.4-2.1-25.4-6.3c-8-4.2-14.3-9.9-19-17.2
		c-4.7-7.2-7.1-15.3-7.1-24.2V6.5z M163.8,102.5c4.6,4.5,10.1,6.8,16.4,6.8c6.4,0,11.9-2.3,16.5-6.8c4.7-4.5,7-9.9,7-16.2
		c0-4.1-1.1-7.9-3.3-11.3c-2.2-3.5-5.1-6.2-8.7-8.3c-3.6-2.1-7.4-3.1-11.6-3.1c-4,0-7.9,1-11.5,3.1c-3.6,2.1-6.5,4.8-8.7,8.3
		c-2.2,3.4-3.3,7.1-3.3,11.3C156.8,92.5,159.2,97.9,163.8,102.5z"/>
	<path fill="#06062C" d="M311.4,129.1c-1.9,0.8-3.3,1.4-4.1,1.7c-6.2,2.4-12.7,3.6-19.5,3.6c-9,0-17.4-2.1-25.4-6.2
		c-8-4.2-14.3-10-19-17.2c-4.7-7.4-7.1-15.6-7.1-24.7c0-6.9,1.4-13.2,4.1-19.2c2.8-5.9,6.5-11,11.3-15.3c4.7-4.3,10.3-7.6,16.5-9.9
		c6.3-2.4,12.8-3.6,19.5-3.6c6.7,0,13.2,1.2,19.5,3.5c6.3,2.3,11.8,5.7,16.5,10c4.9,4.5,8.7,9.6,11.4,15.3
		c2.8,5.9,4.1,12.3,4.1,19.2l-0.1,45.8l-27.9-0.3V129.1z M267.6,74.9c-2.2,3.5-3.3,7.2-3.3,11.3c0,6.2,2.3,11.6,7,16.1
		c4.6,4.5,10.1,6.7,16.4,6.7c6.4,0,11.9-2.2,16.5-6.7c4.7-4.5,7-9.9,7-16.1c0-4.1-1.1-7.9-3.3-11.3c-2.2-3.5-5.1-6.2-8.7-8.3
		c-3.6-2-7.4-3-11.6-3c-4,0-7.9,1-11.5,3C272.6,68.6,269.7,71.4,267.6,74.9z"/>
	<path fill="#06062C" d="M413,68.9c-2.5-2.1-5.3-3.7-8.3-4.7c-3.1-1.1-6.4-1.6-9.8-1.6c-6.4,0-11.9,2.1-16.3,6.2
		c-4.5,4.2-6.8,9.3-6.8,15.5c0,4.8,1,9.1,2.9,12.9c1.9,3.8,4.7,6.8,8.3,9.1c3.6,2.3,7.7,3.4,12.4,3.4c6.9,0,12.8-2.2,17.8-6.6
		l15.4,19.5c-2.2,2.3-5.3,4.4-9.3,6.2c-4,1.8-8.2,3.2-12.5,4c-4.3,0.9-8.2,1.3-11.9,1.3c-10.2,0-19.2-2.1-27-6.4
		c-7.8-4.3-13.8-10-17.9-17.1c-4.2-7.1-6.2-14.8-6.2-22.9c0-7.4,1.3-14.2,3.8-20.2c2.6-6.2,6.1-11.4,10.6-15.8
		c4.5-4.3,9.9-7.6,16.3-10.1c6.3-2.4,13.2-3.6,20.5-3.6c6,0,11.8,0.9,17.5,2.8c5.7,1.9,10.8,4.7,15.2,8.2L413,68.9z"/>
</g>
<g>
	
		<rect x="74.4" y="31.8" transform="matrix(0.7071 -0.7071 0.7071 0.7071 -24.6068 77.2151)" fill="#06062C" width="13" height="73"/>
	
		<rect x="32" y="31.8" transform="matrix(-0.7071 -0.7071 0.7071 -0.7071 17.4356 143.8432)" fill="#06062C" width="13" height="73"/>
</g>
<circle fill="#CB051E" cx="59.6" cy="109.7" r="24.5"/>
<circle fill="#FB8B24" cx="474.7" cy="86.4" r="48.5"/>
<circle fill="#CB051E" cx="582.4" cy="86.4" r="48.5"/>
</svg>
